<svg xmlns="http://www.w3.org/2000/svg" xmlns:xlink="http://www.w3.org/1999/xlink" version="1.1" x="0px" y="0px" viewBox="0 0 90 112.5" enable-background="new 0 0 90 90" xml:space="preserve"><g><g><circle cx="49.7" cy="6.6" r="6.6"/><path d="M70.1,90l-3.4-17.9c0-0.1,0-0.3,0-0.4l-6.1-32.5l1.4-1.5c0.6,0.3,1.2,0.5,1.8,0.5c1,0,1.9-0.4,2.6-1.2c1-1.2,1-2.8,0.3-4    l2.8-2.9c0.4-0.4,0.4-1.1,0-1.6c-0.4-0.4-1.1-0.4-1.6,0l-2.8,2.9L46,15.4c-2-1.8-4.5-3.9-5.7-4.9c-2.1-1.7-4.2-0.9-5.3,0.7    C33.9,12.9,21.6,31.6,20.8,33c-0.9,1.4-1.3,4,0,5.4c0.2,0.2,0.7,0.7,1.2,1.2h-5.7c-0.6,0-1.1,0.5-1.1,1.1c0,0.6,0.5,1.1,1.1,1.1    H24l6.4,21.4L17.7,90H70.1z M43.2,57.4c-0.2,0.4-0.3,0.8-0.3,1.2L41.6,59l0.4-7.7c0.1-1-0.3-1.9-1-2.6l-6.2-6.2l14.8,0.8    L43.2,57.4z M35,52.5l-0.4,8.4l-2.3,0.6l-5-16.9L35,52.5z M51.4,62.4c4.3-0.7,8.6,1.2,11,4.7l-2.7,0.7c-1.9-2.2-4.8-3.4-7.8-2.9    l1.3,4.8l-1.9,0.5l-1.3-4.8c-2.8,1.1-4.8,3.7-5.3,6.6l0.1,0l-2.8,0.8C42.4,67.8,46.1,63.3,51.4,62.4z M55.1,84.3    c-4.3,0.7-8.6-1.2-11-4.7l2.7-0.7c0.7,0.9,1.6,1.6,2.6,2.1l1.2-3.1l2.3-0.6l-1.7,4.5c1.4,0.4,2.9,0.4,4.3,0    c1.5-0.4,2.7-1.2,3.8-2.2l-3.7-3l2.3-0.6l2.7,2.1c0.6-1,1-2.1,1.2-3.2l2.7-0.7C64.1,79,60.4,83.4,55.1,84.3z M45.2,23.7l15.1,12.7    l-1.7,1.7c-0.3,0.3-0.4,0.6-0.3,1L61,53.6l-9.8,2.7l6.6-14.7c0.5-1,0.4-2.2-0.2-3.2c-0.6-1-1.6-1.6-2.7-1.6l-17.7-1L45.2,23.7z"/></g></g><text x="0" y="105" fill="#000000" font-size="5px" font-weight="bold" font-family="'Helvetica Neue', Helvetica, Arial-Unicode, Arial, Sans-serif">Created by Regis Biecher</text><text x="0" y="110" fill="#000000" font-size="5px" font-weight="bold" font-family="'Helvetica Neue', Helvetica, Arial-Unicode, Arial, Sans-serif">from the Noun Project</text></svg>