<svg xmlns="http://www.w3.org/2000/svg" version="1.1" viewBox="-5.0 -10.0 110.0 135.0">
 <path d="m82.66 56.309-4.5312-33.676c-0.32422-2.4023-1.7656-4.5586-3.8633-5.7773l-4.4727-2.5898v-5.9336c0-1.7227-1.4023-3.125-3.125-3.125h-33.332c-1.7227 0-3.125 1.4023-3.125 3.125v5.9336l-4.4727 2.5898c-2.1289 1.2344-3.5352 3.3398-3.8633 5.7734l-4.5352 33.699c-0.066406 0.55859 0.09375 1.1094 0.44922 1.5469 0.35156 0.4375 0.85547 0.71094 1.418 0.76562l4.1484 0.40234c0.066406 0.007812 0.13672 0.011719 0.20312 0.011719 1.0352 0 1.9414-0.78125 2.0664-1.8281l0.80078-5.8047 6.4062-0.72266c0.83203-0.089844 1.5781-0.5 2.1016-1.1562 0.51953-0.65234 0.75391-1.4727 0.65625-2.2891l-0.085938-0.79688c-0.089844-0.83203-0.5-1.5781-1.1562-2.1016-0.65234-0.51953-1.4688-0.75-2.3008-0.65625l-4.6328 0.51953 2.7383-19.832c0.042968-0.32031 0.23047-0.59766 0.50781-0.75781l6.6797-3.8711c0.050781 0.007813 8.4883 0.03125 8.4883 0.03125v6.25h-0.5c-2.9688 0-5.4219 2.2344-5.7031 5.1914l-2.6758 28.113c-0.15234 1.6055 0.38281 3.207 1.4688 4.4023 1.0859 1.1914 2.6289 1.875 4.2344 1.875h3.1758v4.168h-6.25c-1.7227 0-3.125 1.4023-3.125 3.125v3.125c0 1.7227 1.4023 3.125 3.125 3.125h6.25v7.293h-10.707c-0.89844 0-1.6914 0.57422-1.9766 1.4258l-1.3867 4.168c-0.21094 0.63281-0.10547 1.3359 0.28516 1.8789 0.39062 0.54297 1.0234 0.86719 1.6914 0.86719h32.527c0.66797 0 1.3008-0.32422 1.6914-0.86719 0.39062-0.54297 0.49609-1.2422 0.28516-1.8789l-1.3867-4.1641c-0.28516-0.85156-1.0781-1.4258-1.9766-1.4258h-10.707v-7.293h6.25c1.7227 0 3.125-1.4023 3.125-3.125v-3.125c0-1.7227-1.4023-3.125-3.125-3.125h-6.25v-4.168h3.1758c1.6055 0 3.1523-0.68359 4.2344-1.875 1.0859-1.1953 1.6211-2.7969 1.4688-4.4023l-1.1055-11.637c-0.054687-0.57031-0.55469-1.0078-1.1367-0.9375-0.57422 0.054687-0.99219 0.5625-0.9375 1.1367l1.1055 11.637c0.097656 1.0352-0.23438 2.0273-0.9375 2.8008-0.69922 0.76953-1.6562 1.1953-2.6953 1.1953h-14.688c-1.0391 0-1.9922-0.42578-2.6953-1.1953-0.69922-0.76953-1.0352-1.7656-0.93359-2.8008l2.6758-28.113c0.17969-1.8867 1.7383-3.3086 3.6289-3.3086h9.332c1.8906 0 3.4492 1.4219 3.6289 3.3086l0.67578 7.1445c0.054687 0.57031 0.55469 1.0078 1.1367 0.9375 0.57422-0.054687 0.99219-0.5625 0.9375-1.1367l-0.67578-7.1445c-0.28125-2.9609-2.7344-5.1914-5.7031-5.1914h-0.5v-6.25s8.4336-0.023438 8.4883-0.03125l6.6797 3.8711c0.27734 0.16016 0.46484 0.4375 0.50781 0.75781l2.7383 19.832-4.625-0.51562c-0.82812-0.09375-1.6484 0.13672-2.3047 0.65625-0.65234 0.51953-1.0625 1.2656-1.1562 2.1055l-0.082031 0.77734c-0.097656 0.83203 0.13281 1.6484 0.65625 2.3047 0.51953 0.65234 1.2656 1.0625 2.0977 1.1562l6.4102 0.72266 0.80078 5.8008c0.12891 1.0469 1.0312 1.832 2.0664 1.832 0.066406 0 0.13672-0.003906 0.20312-0.011719l4.1484-0.40234c0.5625-0.054688 1.0664-0.32422 1.418-0.76563 0.35547-0.4375 0.51172-0.98828 0.44531-1.5664zm-16.398 36.398-32.527 0.003907v-0.003907l1.3867-4.168h29.75l1.3867 4.168zm-14.18-6.25h-4.168v-7.293h4.168zm9.375-13.539v3.125c0 0.57422-0.46484 1.043-1.043 1.043h-20.832c-0.57422 0-1.043-0.46484-1.043-1.043v-3.125c0-0.57422 0.46875-1.043 1.043-1.043h20.832c0.57422 0 1.043 0.46484 1.043 1.043zm-9.375-7.293v4.168h-4.168v-4.168zm-19.793-19.852c0.27734-0.035157 0.54688 0.042968 0.76172 0.21484 0.21484 0.17188 0.35156 0.41797 0.38281 0.69141l0.085937 0.80469c0.03125 0.27734-0.042969 0.54688-0.21484 0.76172-0.17188 0.21484-0.41797 0.35156-0.69922 0.38281l-5.8828 0.66406 0.40625-2.9414 5.1641-0.57812zm-2.668-23.941c-0.83984 0.48438-1.3984 1.3164-1.5273 2.2773l-4.5352 32.844-0.003906 0.023437-4.1523-0.38281 4.5312-33.676c0.24219-1.793 1.2773-3.3438 2.8438-4.25l4.9922-2.8945c0.32031-0.1875 0.51953-0.53125 0.51953-0.90234v-6.5312c0-0.57422 0.46875-1.043 1.043-1.043h3.125v10.574l-6.8359 3.9648zm8.9219-14.539h22.918v10.418h-22.918zm13.539 18.75h-4.168v-6.25h4.168zm15.312 22.59c-0.27734-0.03125-0.52344-0.16406-0.69531-0.38281-0.17188-0.21484-0.24609-0.48828-0.21484-0.77344l0.082031-0.78906c0.03125-0.27734 0.16406-0.52344 0.38281-0.69531 0.21484-0.17188 0.48828-0.25 0.76953-0.21484l5.1562 0.57812 0.40625 2.9414zm9.0508 8.3438-4.5352-32.871c-0.13281-0.96094-0.69141-1.7891-1.5273-2.2734l-6.8359-3.9648-0.003906-10.574h3.125c0.57422 0 1.043 0.46484 1.043 1.043v6.5312c0 0.37109 0.19531 0.71484 0.51953 0.90234l4.9922 2.8945c1.543 0.89453 2.6055 2.4844 2.8438 4.25l4.5312 33.66-4.1484 0.40625zm-15.043-14.871 0.1875 1.8633c0.003906 0.035156 0.003906 0.070312 0.003906 0.10547 0 0.57422-0.46484 1.0469-1.043 1.0469-0.57422 0-1.043-0.46094-1.043-1.0352l-0.18359-1.7734c-0.058594-0.57031 0.35938-1.082 0.93359-1.1406 0.5625-0.046875 1.082 0.36328 1.1406 0.93359z"/>
<text x="0.0" y="117.5" font-size="5.0" font-weight="bold" font-family="Arbeit Regular, Helvetica, Arial-Unicode, Arial, Sans-serif" fill="#000000">Created by Andi Nur Abdillah</text><text x="0.0" y="122.5" font-size="5.0" font-weight="bold" font-family="Arbeit Regular, Helvetica, Arial-Unicode, Arial, Sans-serif" fill="#000000">from Noun Project</text></svg>