<svg xmlns="http://www.w3.org/2000/svg" xmlns:xlink="http://www.w3.org/1999/xlink" xml:space="preserve" style="shape-rendering:geometricPrecision;text-rendering:geometricPrecision;image-rendering:optimizeQuality;" viewBox="0 0 173.397 216.74624999999997" x="0px" y="0px" fill-rule="evenodd" clip-rule="evenodd"><defs><style type="text/css">
   
    .fil1 {fill:none}
    .fil0 {fill:black}
   
  </style></defs><g><g><path class="fil0" d="M28.7855 159.895l15.1234 0 0 -10.3988 -15.1234 0 0 10.3988zm16.7943 3.3422l-18.4652 0c-0.9227,0 -1.6713,-0.745 -1.6713,-1.671l0.0002 -13.7413c0,-0.9225 0.7482,-1.6709 1.6708,-1.6709l18.4655 -0.0001c0.9262,0 1.671,0.7486 1.671,1.6712l0.0002 13.741c0,0.926 -0.7453,1.6712 -1.6712,1.6711z"/><path class="fil0" d="M129.488 159.895l15.1234 0 0 -10.3988 -15.1234 0 0 10.3988zm16.7943 3.3422l-18.4652 0c-0.9227,0 -1.6713,-0.745 -1.6713,-1.671l0.0002 -13.7413c0,-0.9225 0.7482,-1.6709 1.6708,-1.6709l18.4655 -0.0001c0.9262,0 1.671,0.7486 1.671,1.6712l0.0002 13.741c0,0.926 -0.7452,1.6712 -1.6712,1.6711z"/><path class="fil0" d="M41.2871 149.496c-0.9223,0 -1.6711,-0.7486 -1.6711,-1.6711l0.0004 -134.323 -6.5349 0 0 134.323c0,0.9226 -0.7486,1.6713 -1.6711,1.6713 -0.9224,0 -1.6711,-0.7486 -1.6711,-1.6711l0.0003 -135.994c0,-0.9225 0.7482,-1.671 1.6708,-1.671l9.8767 0c0.9228,0 1.6711,0.7485 1.6711,1.6711l0.0002 135.994c0,0.9226 -0.7487,1.6713 -1.6713,1.6713z"/><path class="fil0" d="M141.99 149.496c-0.9223,0 -1.6711,-0.7486 -1.6711,-1.6711l0.0004 -134.323 -6.5348 0 0 134.323c0,0.9226 -0.7487,1.6713 -1.6712,1.6713 -0.9224,0 -1.6711,-0.7486 -1.6711,-1.6711l0.0003 -135.994c0,-0.9225 0.7482,-1.671 1.6708,-1.671l9.8767 0c0.9229,0 1.6712,0.7485 1.6712,1.6711l0.0001 135.994c0,0.9226 -0.7487,1.6713 -1.6713,1.6713z"/><path class="fil0" d="M132.113 31.5079l-13.1527 0c-0.9223,0 -1.6711,-0.745 -1.6711,-1.6709 0.0003,-0.9228 0.7485,-1.6712 1.671,-1.6712l13.1528 -0.0001c0.9227,0 1.6711,0.7487 1.6711,1.6713 0.0001,0.9259 -0.7486,1.6709 -1.6711,1.6709z"/><path class="fil0" d="M132.113 22.7418l-13.3822 0c-0.9227,0 -1.6714,-0.745 -1.6714,-1.671 0.0002,-0.9228 0.7486,-1.6711 1.6711,-1.6711l13.3825 -0.0001c0.9227,0 1.6711,0.7485 1.6711,1.6712 0.0001,0.9259 -0.7486,1.671 -1.6711,1.671z"/><path class="fil0" d="M107.674 22.7523c0,0 0,0 0,0l-41.9544 -0.0105c-0.9223,0 -1.6711,-0.745 -1.6675,-1.671 0.0002,-0.9228 0.745,-1.6711 1.6709,-1.6711l41.9544 0.0103c0.9228,0 1.6676,0.7486 1.6676,1.6712 0.0001,0.9225 -0.7485,1.6711 -1.671,1.6711z"/><path class="fil0" d="M107.444 31.5079l-41.4914 0c-0.9227,0 -1.6713,-0.745 -1.6713,-1.6709 0.0001,-0.9228 0.7486,-1.6712 1.6712,-1.6712l41.4915 -0.0001c0.9259,0 1.6709,0.7487 1.6709,1.6713 0.0003,0.9259 -0.7451,1.6709 -1.6709,1.6709z"/><path class="fil0" d="M54.6698 22.7418l-13.3827 0c-0.9223,0 -1.6711,-0.745 -1.6711,-1.671 0.0004,-0.9228 0.7485,-1.6711 1.6711,-1.6711l13.3827 -0.0001c0.9227,0 1.6709,0.7485 1.6709,1.6712 0.0002,0.9259 -0.7485,1.671 -1.6709,1.671z"/><path class="fil0" d="M54.4367 31.5079l-13.1496 0c-0.9223,0 -1.6711,-0.745 -1.6711,-1.6709 0.0004,-0.9228 0.7485,-1.6712 1.6711,-1.6712l13.1496 -0.0001c0.9224,0 1.6707,0.7487 1.6707,1.6713 0.0001,0.9259 -0.7485,1.6709 -1.6707,1.6709z"/><path class="fil0" d="M86.6987 36.086c-4.3693,0 -7.9238,3.5546 -7.9238,7.9237 0.0002,4.3726 3.5545,7.9272 7.9236,7.9272 4.3727,-0.0001 7.9272,-3.5546 7.9272,-7.9272 0.0002,-4.3692 -3.5545,-7.9237 -7.927,-7.9237zm0 19.193c-6.2109,0 -11.266,-5.055 -11.266,-11.2693 0,-6.211 5.055,-11.2659 11.2658,-11.2659 6.2146,0 11.2693,5.0551 11.2693,11.2659 0.0001,6.2142 -5.055,11.2693 -11.2691,11.2693z"/><path class="fil0" d="M96.1854 140.531c0.4038,2.1723 2.2732,3.7322 4.4909,3.7322 2.2214,-0.0001 4.0906,-1.5632 4.4945,-3.7321l0 -24.0949c0,-0.6964 -0.08,-1.2776 -0.2575,-1.946l-4.6304 -17.2818c-0.2572,-0.9539 -0.369,-1.8241 -0.369,-2.8129l0.0002 -21.0068c0,-2.9871 1.0686,-5.5702 3.1784,-7.68l12.4843 -12.4843c1.1523,-1.1524 1.7128,-2.5066 1.7128,-4.1359l0.0003 -26.4725c0,-0.7626 -0.2022,-1.3787 -0.6548,-1.9914 -0.8041,-1.0827 -2.0854,-1.7267 -3.4327,-1.7267 -1.3436,-0.0001 -2.6285,0.644 -3.4292,1.7267 -0.4524,0.6125 -0.6579,1.2289 -0.6579,1.9914l0.0003 21.7726c0,6.4788 -10.6152,15.7221 -16.4117,15.7221l-12.0073 -0.0001c-3.0252,0 -7.0081,-2.1236 -10.6566,-5.6815 -1.3505,-1.3197 -5.7583,-5.9359 -5.7583,-10.0405l0.0001 -21.7726c0,-0.7626 -0.202,-1.3787 -0.6546,-1.9914 -0.8039,-1.0827 -2.0853,-1.7267 -3.4326,-1.7267 -1.3435,-0.0001 -2.6284,0.644 -3.4292,1.7267 -0.4522,0.6125 -0.658,1.2289 -0.658,1.9914l0.0001 26.4725c0,1.6293 0.5604,2.9837 1.7128,4.1359l12.4844 12.4843c2.1134,2.1097 3.1819,4.693 3.1819,7.68l0.0003 21.0068c0,0.9887 -0.1153,1.8556 -0.3694,2.813l-4.6301 17.2816c-0.1809,0.6684 -0.2577,1.2498 -0.2577,1.9461l0 24.0948c0.4038,2.169 2.2733,3.7322 4.491,3.7322 2.2212,-0.0001 4.0906,-1.5632 4.491,-3.7321l0.0003 -22.1002c0,-1.1209 0.1459,-2.0991 0.4732,-3.1714l4.5957 -15.0397c0.5326,-1.7372 2.2662,-2.8581 4.4176,-2.8581 2.1551,0 3.8887,1.121 4.4179,2.8582l4.7001 15.3772c0.2577,0.8391 0.3688,1.6051 0.3688,2.4789l0.0001 22.455zm4.4912 7.0741c-3.9131,0 -7.1963,-2.8024 -7.8125,-6.6702 -0.0137,-0.0837 -0.021,-0.1741 -0.021,-0.2611l0.0003 -22.5979c0,-0.5431 -0.0629,-0.9782 -0.223,-1.5004l-4.6997 -15.3808c-0.0733,-0.2333 -0.5607,-0.4909 -1.2222,-0.4909 -0.6613,-0.0001 -1.1488,0.2576 -1.2185,0.4909l-4.5986 15.0396c-0.2298,0.752 -0.3275,1.4101 -0.3275,2.1968l0.0001 22.2427c0,0.0869 -0.0072,0.1775 -0.0211,0.2611 -0.6126,3.8677 -3.8991,6.6703 -7.8122,6.6703 -3.9129,-0.0001 -7.1996,-2.8025 -7.8122,-6.6703 -0.0137,-0.0837 -0.0209,-0.1741 -0.0209,-0.2611l0 -24.2376c0,-0.9888 0.1148,-1.8555 0.3725,-2.8129l4.6268 -17.2817c0.1812,-0.6686 0.2575,-1.2533 0.2575,-1.9461l0.0001 -21.0068c0,-2.0959 -0.7207,-3.8365 -2.2038,-5.3195l-12.4806 -12.4809c-1.7895,-1.7895 -2.6948,-3.9757 -2.6948,-6.4998l0.0002 -26.4725c0,-1.4867 0.4315,-2.7886 1.3158,-3.9792 1.4274,-1.9287 3.7146,-3.0811 6.1133,-3.0811 2.4023,-0.0001 4.6859,1.1524 6.1169,3.0811 0.8842,1.1906 1.3124,2.4927 1.3124,3.9792l0.0003 21.7726c0,3.8365 8.3376,12.3799 13.0724,12.3799l12.0074 0c4.049,0 13.0691,-7.8958 13.0691,-12.3799l0.0001 -21.7726c0,-1.4867 0.4317,-2.7886 1.3159,-3.9792 1.4308,-1.9287 3.7146,-3.0811 6.1133,-3.0811 2.4022,-0.0001 4.686,1.1524 6.1169,3.0811 0.8846,1.1906 1.3125,2.4927 1.3125,3.9792l0.0002 26.4725c0,2.5241 -0.9054,4.7104 -2.6914,6.4998l-12.4843 12.4808c-1.4793,1.4829 -2.2003,3.2238 -2.2003,5.3196l0.0004 21.0068c0,0.6962 0.0762,1.2777 0.2538,1.9461l4.6306 17.2817c0.2573,0.9573 0.3721,1.8242 0.3721,2.8129l0.0004 24.2376c0,0.0869 -0.0072,0.1775 -0.0212,0.2611 -0.6161,3.8677 -3.9026,6.6703 -7.8155,6.6702z"/></g></g><rect class="fil1" width="173.397" height="173.397"/><text x="0" y="188.397" fill="#000000" font-size="5px" font-weight="bold" font-family="'Helvetica Neue', Helvetica, Arial-Unicode, Arial, Sans-serif">Created by Ehtisham Abid</text><text x="0" y="193.397" fill="#000000" font-size="5px" font-weight="bold" font-family="'Helvetica Neue', Helvetica, Arial-Unicode, Arial, Sans-serif">from the Noun Project</text></svg>