<svg xmlns="http://www.w3.org/2000/svg" xmlns:xlink="http://www.w3.org/1999/xlink" version="1.1" x="0px" y="0px" viewBox="0 0 128 160" style="enable-background:new 0 0 128 128;" xml:space="preserve"><g><path d="M54,33h-6c-1.654,0-3,1.346-3,3v16c0,1.654,1.346,3,3,3h6c1.654,0,3-1.346,3-3V36C57,34.346,55.654,33,54,33z M55,52   c0,0.551-0.449,1-1,1h-6c-0.551,0-1-0.449-1-1V36c0-0.551,0.449-1,1-1h6c0.551,0,1,0.449,1,1V52z"/><path d="M110.769,31.362c-0.02-0.023-0.04-0.046-0.062-0.067l-6.042-6.041c-1.169-1.04-2.311-1.252-3.665-1.252h-9.222   C90.433,13.68,82.321,5.567,72,4.222V4c0-1.654-1.346-3-3-3H59c-1.654,0-3,1.346-3,3v0.222   c-10.321,1.345-18.433,9.458-19.778,19.78h-9.224c-1.354,0-2.494,0.213-3.707,1.293l-6,6c-0.021,0.021-0.041,0.042-0.06,0.065   c-1.68,1.745-1.513,3.735-0.468,4.811c1.006,1.036,2.946,1.35,4.854-0.384c0.031-0.024,0.06-0.05,0.088-0.078l4.957-4.959   l0.197-0.177c0.549-0.495,0.633-0.571,1.139-0.571H36V115h-1.14c-2.128,0-3.86,1.731-3.86,3.86v4.279c0,2.129,1.732,3.86,3.86,3.86   H93c2.206,0,4-1.794,4-4v-4.14c0-2.129-1.732-3.86-3.86-3.86H92V30.002h8c0.505,0,0.589,0.076,1.139,0.571l5.154,5.136   c0.028,0.028,0.057,0.054,0.088,0.078c0.966,0.878,1.94,1.231,2.797,1.231c0.836,0,1.56-0.335,2.057-0.847   C112.279,35.096,112.447,33.106,110.769,31.362z M89.761,24.002h-2.027C86.449,15.968,80.031,9.548,72,8.261V6.238   C81.213,7.555,88.445,14.788,89.761,24.002z M71,115v-14h4c2.757,0,5-2.243,5-5v-4c0-2.757-2.243-5-5-5h-7V36c0-2.206-1.794-4-4-4   s-4,1.794-4,4v51h-7c-2.757,0-5,2.243-5,5v4c0,2.757,2.243,5,5,5h4v14H42V30.002h44V115H71z M59,115v-14h10v14H59z M66,87h-4V36   c0-1.103,0.897-2,2-2s2,0.897,2,2V87z M75,89c1.654,0,3,1.346,3,3v4c0,1.654-1.346,3-3,3H53c-1.654,0-3-1.346-3-3v-4   c0-1.654,1.346-3,3-3H75z M60,28.002v-2h8v2H60z M56.028,10.279C56.172,11.801,57.441,13,59,13h2v11.002h-1.99   C59.006,24.002,59.003,24,59,24s-0.006,0.002-0.01,0.002H42.288C43.535,17.056,49.081,11.516,56.028,10.279z M65,13v2.382l-2-1V13   H65z M63,24.002v-2.384l2,1v1.384H63z M65,20.382l-2-1v-2.764l2,1V20.382z M69.01,24.002C69.006,24.002,69.003,24,69,24   s-0.006,0.002-0.01,0.002H67V13h2c1.559,0,2.828-1.199,2.972-2.721c6.947,1.236,12.493,6.776,13.741,13.722H69.01z M58,4   c0-0.551,0.449-1,1-1h10c0.551,0,1,0.449,1,1v6c0,0.551-0.449,1-1,1H59c-0.551,0-1-0.449-1-1V4z M56,6.238v2.023   c-8.031,1.286-14.449,7.707-15.735,15.74h-2.027C39.555,14.788,46.787,7.555,56,6.238z M25.521,29.087l-5.178,5.156   c-0.011,0.009-0.021,0.019-0.032,0.029c-0.942,0.875-1.755,0.876-2.113,0.507c-0.377-0.389-0.324-1.224,0.51-2.068   c0.017-0.017,0.033-0.034,0.048-0.052l5.906-5.909c0.637-0.566,1.205-0.748,2.336-0.748H58v2H27.999   C26.725,28.002,26.167,28.505,25.521,29.087z M38,30.002h2V115h-2V30.002z M95,118.86V123c0,1.103-0.897,2-2,2H34.86   c-1.026,0-1.86-0.835-1.86-1.86v-4.279c0-1.025,0.834-1.86,1.86-1.86H93.14C94.166,117,95,117.835,95,118.86z M90,115h-2V30.002h2   V115z M109.8,34.778c-0.357,0.37-1.172,0.368-2.112-0.507c-0.011-0.011-0.023-0.021-0.035-0.031l-4.989-4.986l-0.187-0.167   c-0.646-0.582-1.204-1.085-2.478-1.085H70v-2h31c1.132,0,1.699,0.182,2.293,0.707l5.948,5.948c0.016,0.018,0.032,0.036,0.049,0.054   C110.124,33.554,110.178,34.39,109.8,34.778z"/></g><text x="0" y="143" fill="#000000" font-size="5px" font-weight="bold" font-family="'Helvetica Neue', Helvetica, Arial-Unicode, Arial, Sans-serif">Created by Amethyst Studio</text><text x="0" y="148" fill="#000000" font-size="5px" font-weight="bold" font-family="'Helvetica Neue', Helvetica, Arial-Unicode, Arial, Sans-serif">from the Noun Project</text></svg>