<svg xmlns="http://www.w3.org/2000/svg" version="1.1" viewBox="-5.0 -10.0 110.0 135.0">
 <path d="m62.926 42.18c-0.40234 1.6016-1.2031 3.0469-2.2969 4.2188l4.1016 4.6367c1.5273-0.96094 3.4609-1.2461 5.2969-0.61719 3.2266 1.1055 4.9531 4.625 3.8438 7.8516-1.1055 3.2266-4.625 4.9492-7.8516 3.8438-3.2266-1.1055-4.9531-4.625-3.8438-7.8516 0.24609-0.71484 0.60547-1.3516 1.0586-1.9062l-4.1094-4.6484c-0.57812 0.41016-1.207 0.75391-1.8711 1.0273v28.156h15.488c0.55078 0 1 0.44531 1 1v5.3242c0 0.55078-0.44922 1-1 1h-66.723c-0.55078 0-1-0.44922-1-1v-5.3242c0-0.55078 0.44922-1 1-1h5.7461l4.1992-27.434h-6.2578c-1.6328 0-2.9688-1.293-3.0195-2.9258-0.22266-6.918-0.96094-29.805-0.96094-29.805-0.007812-0.26953 0.09375-0.53125 0.28125-0.72656s0.44531-0.30469 0.71875-0.30469h4.2734c1.793 0 3.2656 1.4141 3.3398 3.207l0.89062 21.938c0.003906 0.050781 0.046875 0.09375 0.097656 0.09375h22.961c0.86719 0 1.6992 0.34375 2.3125 0.95703 0.61328 0.61328 0.95703 1.4453 0.95703 2.3125v4.25c0 0.55078-0.44531 1-1 1h-17.246l-1.1016 7.1914h27.727v-7.9141c-3.4961-1.4414-5.9609-4.8828-5.9609-8.8984 0-2.4805 0.94141-4.7422 2.4844-6.4492l-4.2383-4.793c-1.5391 0.99609-3.5039 1.3047-5.3711 0.66406-3.2266-1.1055-4.9531-4.625-3.8438-7.8516 1.1055-3.2266 4.625-4.9531 7.8516-3.8438 3.2266 1.1055 4.9492 4.625 3.8438 7.8516-0.23438 0.68359-0.57812 1.3008-1 1.8359l4.2461 4.8008c0.61328-0.44531 1.2773-0.82031 1.9883-1.1133v-4.8438c0-0.55078 0.44531-1 1-1h5.3242c0.55078 0 1 0.44922 1 1v4.8438c1.8594 0.76562 3.4297 2.1016 4.4883 3.7852l5.7344 0.49219c1.9258-5.5 7.1641-9.4492 13.316-9.4492 7.7852 0 14.105 6.3203 14.105 14.105 0 7.7852-6.3203 14.105-14.105 14.105-6.8828 0-12.617-4.9375-13.859-11.461l-4.0078-0.34375zm-12.992 34.715h-30.824l1.9766-12.926h28.848z" fill-rule="evenodd"/>
<text x="0.0" y="117.5" font-size="5.0" font-weight="bold" font-family="Arbeit Regular, Helvetica, Arial-Unicode, Arial, Sans-serif" fill="#000000">Created by Agan24</text><text x="0.0" y="122.5" font-size="5.0" font-weight="bold" font-family="Arbeit Regular, Helvetica, Arial-Unicode, Arial, Sans-serif" fill="#000000">from Noun Project</text></svg>