<svg xmlns="http://www.w3.org/2000/svg" version="1.1" viewBox="-5.0 -10.0 110.0 135.0">
 <path d="m40.156 79.27c-0.55859 0-1.1211-0.078125-1.668-0.23828-1.0508-0.30469-2.0039-0.89062-2.75-1.6992l-18.84-20.363c-1.832-1.9805-2.7969-4.5508-2.7227-7.2461 0.074219-2.6953 1.1836-5.2109 3.1211-7.0859 0.57812-0.55859 1.4961-0.54297 2.0586 0.035156 0.55859 0.57812 0.54297 1.5-0.035157 2.0586-2.8438 2.7539-2.9727 7.3594-0.28516 10.266l18.84 20.367c0.38672 0.41797 0.87891 0.72266 1.4219 0.88281 1.0742 0.3125 2.2383 0.019531 3.0469-0.75781 1.0312-0.99219 1.2578-2.5586 0.54688-3.8047-0.14062-0.23828-0.30859-0.46484-0.50391-0.65625l-14.094-14.113c-0.56641-0.57031-0.56641-1.4883 0-2.0586 0.57031-0.56641 1.4883-0.56641 2.0586 0l14.094 14.113c0.37109 0.37109 0.69531 0.79297 0.96484 1.2578 1.3789 2.4141 0.94141 5.4336-1.0469 7.3516-1.1445 1.0977-2.6641 1.6914-4.207 1.6914z"/>
 <path d="m38.289 52.328c-0.35547 0-0.71094-0.12891-0.98828-0.39062l-7.8711-7.3164c-0.84766-0.78906-1.8398-1.3516-2.9492-1.6758-1.832-0.53125-3.8438-0.32031-5.5156 0.57813-0.70703 0.37891-1.5898 0.11328-1.9688-0.59375-0.37891-0.70703-0.11328-1.5898 0.59375-1.9688 2.3359-1.2539 5.1445-1.5469 7.6992-0.80859 1.5508 0.44922 2.9414 1.2383 4.1211 2.3398l7.8711 7.3164c0.58984 0.54688 0.62109 1.4688 0.074219 2.0547-0.28906 0.30859-0.67578 0.46484-1.0664 0.46484z"/>
 <path d="m39.922 57.895c-0.62891 0-1.207-0.41016-1.3945-1.043l-5.4023-18.395c-1.1914-4.0625 0.80859-8.4609 4.6562-10.227l17.719-8.1406c2.2266-1.0234 4.8555-0.77344 6.8555 0.64844 0.65625 0.46484 0.80859 1.375 0.34375 2.0273-0.46484 0.65625-1.375 0.80859-2.0273 0.34375-1.1562-0.82031-2.668-0.96484-3.9531-0.375l-17.723 8.1406c-2.543 1.168-3.8672 4.0742-3.082 6.7617l5.3984 18.395c0.22656 0.76953-0.21484 1.5781-0.98438 1.8047-0.13281 0.039062-0.26953 0.058593-0.40625 0.058593z"/>
 <path d="m44.152 72.414c-0.39453 0-0.78516-0.16016-1.0742-0.47266-0.54297-0.59375-0.50391-1.5117 0.089844-2.0547l3.9336-3.6055c0.69531-0.63672 1.2891-1.3672 1.7656-2.1719 1.3047-2.1953 1.6797-4.7656 1.0586-7.2422l-4.1602-16.547c-0.37891-1.5039 0.31641-3.0586 1.6914-3.7812l12.758-6.6992c0.96484-0.50781 1.6641-1.3594 1.9648-2.4062 0.27344-0.94141 0.18359-1.9492-0.24219-2.8359-0.097656-0.19922-0.21094-0.39062-0.33594-0.56641-0.46875-0.65234-0.32031-1.5625 0.33203-2.0312s1.5625-0.32031 2.0312 0.33203c0.22266 0.30859 0.42188 0.64453 0.58984 0.99219 0.74219 1.5312 0.89453 3.2773 0.42187 4.9141-0.52734 1.8125-1.7344 3.2969-3.4062 4.1719l-12.758 6.6953c-0.17969 0.09375-0.27344 0.30078-0.22266 0.49609l4.1602 16.547c0.8125 3.2266 0.32031 6.5781-1.3789 9.4375-0.62109 1.0508-1.3984 2.0039-2.3008 2.832l-3.9336 3.6055c-0.28125 0.26172-0.63281 0.39062-0.98438 0.39062z"/>
 <path d="m13.973 46.246c-0.98828 0-1.9805-0.14062-2.9531-0.42188-5.5938-1.6211-8.8281-7.4883-7.2109-13.086 1.6211-5.5938 7.4883-8.8281 13.086-7.2109 5.5938 1.6211 8.8281 7.4883 7.2109 13.086-0.78516 2.7109-2.5781 4.9531-5.0508 6.3164-1.582 0.87109-3.3203 1.3164-5.082 1.3164zm-0.011718-18.227c-3.3203 0-6.3867 2.1797-7.3555 5.5273-0.57031 1.9648-0.33984 4.0312 0.64844 5.8242 0.98828 1.7891 2.6133 3.0898 4.5742 3.6602 1.9648 0.57031 4.0312 0.33984 5.8242-0.64844 1.7891-0.98828 3.0898-2.6133 3.6602-4.5742 1.1719-4.0547-1.1719-8.3086-5.2227-9.4805-0.71094-0.21094-1.4258-0.30859-2.1289-0.30859z"/>
 <path d="m38.391 91.156h-0.019531c-0.40234-0.003906-0.78125-0.17578-1.0508-0.47266l-31.543-34.395c-0.52734-0.57422-0.50781-1.4609 0.042968-2.0117l5.582-5.582c0.27734-0.27734 0.64844-0.42578 1.0469-0.42578 0.39062 0.003907 0.76562 0.16797 1.0352 0.44922l4.2461 4.4531c0.55469 0.58203 0.53125 1.5039-0.046875 2.0547-0.58203 0.55469-1.5039 0.53125-2.0547-0.046874l-3.2188-3.375-3.543 3.543 29.555 32.23 54.695-56.52-3.543-3.543-38.426 38.363c-0.57031 0.56641-1.4883 0.56641-2.0586 0-0.56641-0.57031-0.56641-1.4883 0-2.0586l39.449-39.387c0.56641-0.56641 1.4883-0.56641 2.0547 0l5.5859 5.582c0.5625 0.5625 0.57031 1.4688 0.015624 2.0391l-56.762 58.656c-0.27344 0.28516-0.64844 0.44531-1.043 0.44531z"/>
 <path d="m77.305 39.164c-0.37109 0-0.74609-0.14062-1.0273-0.42578l-14.52-14.52c-0.015624-0.015625-0.027343-0.027344-0.042968-0.042969l-7.2656-7.2656c-0.27344-0.27344-0.42578-0.64453-0.42578-1.0273 0-0.38672 0.15234-0.75391 0.42578-1.0273l5.582-5.582c0.57031-0.56641 1.4883-0.56641 2.0586 0l21.832 21.832c0.56641 0.56641 0.56641 1.4883 0 2.0586-0.56641 0.56641-1.4883 0.56641-2.0586 0l-20.805-20.809-3.5234 3.5234 20.797 20.797c0.56641 0.56641 0.56641 1.4883 0 2.0586-0.28125 0.28516-0.65625 0.42969-1.0273 0.42969z"/>
 <path d="m95.051 91.156h-90.184c-0.80469 0-1.4531-0.65234-1.4531-1.4531 0-0.80469 0.65234-1.4531 1.4531-1.4531h90.184c0.80469 0 1.4531 0.65234 1.4531 1.4531 0.003906 0.80078-0.64844 1.4531-1.4531 1.4531z"/>
 <path d="m17.441 91.156c-0.69531 0-1.3125-0.50391-1.4336-1.2109l-4.7266-28c-0.13281-0.79297 0.39844-1.543 1.1914-1.6758 0.79297-0.13281 1.543 0.39844 1.6758 1.1914l4.7266 28c0.13281 0.79297-0.39844 1.543-1.1914 1.6758-0.082032 0.011719-0.16406 0.019531-0.24219 0.019531z"/>
 <path d="m24.578 91.156c-0.6875 0-1.2969-0.48828-1.4297-1.1875l-3.5312-18.914c-0.14844-0.78906 0.375-1.5508 1.1641-1.6953 0.78906-0.14844 1.5508 0.375 1.6953 1.1641l3.5312 18.914c0.14844 0.78906-0.375 1.5508-1.1641 1.6953-0.089844 0.015626-0.17969 0.023438-0.26562 0.023438z"/>
 <path d="m84.871 82.43c-6.418 0-11.637-5.2188-11.637-11.637s5.2188-11.637 11.637-11.637c6.418 0 11.637 5.2188 11.637 11.637 0 6.4141-5.2188 11.637-11.637 11.637zm0-20.367c-4.8125 0-8.7266 3.9141-8.7266 8.7266s3.9141 8.7266 8.7266 8.7266 8.7266-3.9141 8.7266-8.7266c0-4.8086-3.9141-8.7266-8.7266-8.7266z"/>
 <path d="m84.871 76.609c-3.207 0-5.8164-2.6094-5.8164-5.8164s2.6094-5.8164 5.8164-5.8164c3.207 0 5.8164 2.6094 5.8164 5.8164s-2.6094 5.8164-5.8164 5.8164zm0-8.7266c-1.6055 0-2.9102 1.3047-2.9102 2.9102s1.3047 2.9102 2.9102 2.9102c1.6055 0 2.9102-1.3047 2.9102-2.9102s-1.3047-2.9102-2.9102-2.9102z"/>
 <path d="m84.871 91.156c-0.80469 0-1.4531-0.65234-1.4531-1.4531v-8.7266c0-0.80469 0.65234-1.4531 1.4531-1.4531 0.80469 0 1.4531 0.65234 1.4531 1.4531v8.7266c0 0.80078-0.64844 1.4531-1.4531 1.4531z"/>
 <path d="m84.871 62.062c-0.80469 0-1.4531-0.65234-1.4531-1.4531v-18.941c0-0.80469 0.65234-1.4531 1.4531-1.4531 0.80469 0 1.4531 0.65234 1.4531 1.4531v18.941c0 0.80469-0.64844 1.4531-1.4531 1.4531z"/>
<text x="0.0" y="117.5" font-size="5.0" font-weight="bold" font-family="Arbeit Regular, Helvetica, Arial-Unicode, Arial, Sans-serif" fill="#000000">Created by SAM Designs</text><text x="0.0" y="122.5" font-size="5.0" font-weight="bold" font-family="Arbeit Regular, Helvetica, Arial-Unicode, Arial, Sans-serif" fill="#000000">from Noun Project</text></svg>