<svg xmlns="http://www.w3.org/2000/svg" xmlns:xlink="http://www.w3.org/1999/xlink" xmlns:serif="http://www.serif.com/" viewBox="0 0 417 521.25" version="1.1" xml:space="preserve" style="" x="0px" y="0px" fill-rule="evenodd" clip-rule="evenodd" stroke-linejoin="round" stroke-miterlimit="2"><rect serif:id="Page 18" x="0" y="0" width="416.667" height="416.667" style="" fill="none"/><path d="M262.403,175.893c-1.671,6.682 -5.02,12.701 -9.571,17.585l17.109,19.341c6.368,-4.003 14.424,-5.201 22.087,-2.576l0,-0c13.461,4.61 20.647,19.282 16.036,32.743c-4.611,13.461 -19.283,20.646 -32.743,16.036c-13.461,-4.611 -20.647,-19.283 -16.036,-32.744c1.019,-2.975 2.529,-5.643 4.408,-7.944l-17.142,-19.378c-2.417,1.703 -5.032,3.147 -7.801,4.289l-0,117.416l64.579,-0c2.301,-0 4.167,1.865 4.167,4.167l-0,22.195c-0,2.301 -1.866,4.167 -4.167,4.167l-278.226,-0c-2.301,-0 -4.167,-1.866 -4.167,-4.167l0,-22.195c0,-2.302 1.866,-4.167 4.167,-4.167l23.957,-0l17.505,-114.405l-26.102,-0c-6.801,-0 -12.375,-5.398 -12.594,-12.196c-0.929,-28.849 -4.002,-124.282 -4.002,-124.282c-0.037,-1.128 0.386,-2.222 1.171,-3.033c0.785,-0.811 1.865,-1.268 2.993,-1.268c0,-0 9.951,-0 17.815,-0c7.478,-0 13.624,5.902 13.926,13.374l3.707,91.481c0.009,0.219 0.19,0.392 0.409,0.392l95.739,0c3.619,0 7.091,1.438 9.65,3.998c2.559,2.559 3.997,6.03 3.997,9.65l0,17.717c0,2.301 -1.865,4.167 -4.166,4.167l-71.917,-0l-4.587,29.983c-0,0 115.617,0 115.617,0l-0,-32.994c-14.579,-6.013 -24.849,-20.368 -24.849,-37.103c-0,-10.343 3.923,-19.778 10.361,-26.893l-17.676,-19.982c-6.416,4.161 -14.61,5.443 -22.398,2.775c-13.461,-4.611 -20.647,-19.283 -16.036,-32.744c4.611,-13.461 19.282,-20.646 32.743,-16.035l0.001,-0c13.461,4.61 20.646,19.282 16.035,32.743c-0.976,2.851 -2.404,5.421 -4.177,7.657l17.706,20.015c2.553,-1.856 5.333,-3.419 8.29,-4.638l-0,-20.192c-0,-2.301 1.865,-4.167 4.166,-4.167l22.196,0c2.301,0 4.167,1.866 4.167,4.167l-0,20.192c7.757,3.199 14.294,8.76 18.714,15.786l23.911,2.057c8.03,-22.935 29.874,-39.402 55.534,-39.402c32.465,0 58.821,26.357 58.821,58.821c0,32.465 -26.356,58.822 -58.821,58.822c-28.697,-0 -52.621,-20.595 -57.787,-47.793l-16.719,-1.438Zm-31.987,29.765c-2.249,0.393 -4.566,0.598 -6.931,0.598c-2.364,-0 -4.681,-0.205 -6.931,-0.598l-0,34.748c-0,2.301 -1.866,4.167 -4.167,4.167l-124.636,-0c-1.215,-0 -2.37,-0.531 -3.161,-1.453c-0.792,-0.922 -1.142,-2.143 -0.958,-3.344c0,-0 5.129,-33.52 5.129,-33.52l-13.765,-0l-18.24,119.202c-0.311,2.034 -2.06,3.536 -4.118,3.536c-0,0 -23.368,0 -23.368,0c-0,0 -0,13.863 -0,13.863c-0,-0 269.892,-0 269.892,-0c0,-0 0,-13.863 0,-13.863l-64.579,0c-2.301,0 -4.167,-1.865 -4.167,-4.166l0,-119.17Zm-18.029,123.336c2.301,0 4.167,-1.865 4.167,-4.166l-0,-62.226c-0,-2.302 -1.866,-4.167 -4.167,-4.167l-128.032,0c-2.058,0 -3.808,1.502 -4.119,3.536l-9.521,62.226c-0.184,1.201 0.166,2.423 0.957,3.345c0.792,0.922 1.946,1.452 3.161,1.452l137.554,0Zm-4.166,-8.333l-128.535,-0c0,-0 8.246,-53.893 8.246,-53.893c0,0 120.289,0 120.289,0l-0,53.893Zm81.107,-102.535c9.11,3.121 13.972,13.05 10.852,22.16c-3.12,9.11 -13.049,13.972 -22.159,10.852c-9.11,-3.12 -13.973,-13.05 -10.853,-22.159c3.121,-9.11 13.05,-13.973 22.16,-10.853l0,0Zm-1.524,-40.049l46.079,3.963c3.821,0.329 7.615,-0.874 10.548,-3.343c2.934,-2.469 4.766,-6.002 5.095,-9.822c0.046,-0.535 0.092,-1.073 0.138,-1.609c0.329,-3.82 -0.874,-7.614 -3.342,-10.548c-2.469,-2.933 -6.003,-4.766 -9.823,-5.094l-46.504,-4c7.433,-18.631 25.647,-31.809 46.914,-31.809c27.865,-0 50.488,22.622 50.488,50.487c0,27.865 -22.623,50.488 -50.488,50.488c-23.811,0 -43.795,-16.519 -49.105,-38.713Zm-255.47,-104.267l13.512,0c3.007,0 5.478,2.373 5.6,5.378c0.887,21.898 3.069,75.738 3.707,91.481c0.19,4.687 4.045,8.389 8.735,8.389c0,-0 95.739,-0 95.739,-0c1.409,-0 2.761,0.559 3.757,1.556c0.997,0.997 1.557,2.348 1.557,3.758l-0,13.55c-0,0 -124.478,0 -124.478,0c-2.303,0 -4.191,-1.828 -4.265,-4.13l-3.864,-119.982Zm166.963,71.728c-4.734,5.551 -7.592,12.746 -7.592,20.604c0,17.54 14.24,31.78 31.78,31.78c6.465,0 12.482,-1.934 17.502,-5.256l-13.98,-15.804c-2.242,0.761 -4.743,0.814 -7.153,-0.012c-5.795,-1.985 -8.889,-8.301 -6.904,-14.096c0.144,-0.421 0.311,-0.826 0.499,-1.218l-14.152,-15.998Zm47.982,41.663c4.968,-5.607 7.986,-12.983 7.986,-21.059c0,-17.54 -14.24,-31.78 -31.78,-31.78c-6.681,0 -12.883,2.066 -18.001,5.593l14.136,15.98c2.311,-0.852 4.918,-0.945 7.427,-0.085c5.795,1.985 8.889,8.301 6.904,14.097c-0.177,0.514 -0.387,1.008 -0.628,1.478l13.956,15.776Zm14.298,-33.657l74.208,6.382c1.618,0.139 3.115,0.916 4.161,2.158c1.046,1.243 1.555,2.85 1.416,4.468l-0.139,1.609c-0.139,1.618 -0.915,3.115 -2.158,4.161c-1.242,1.045 -2.849,1.555 -4.467,1.416l-71.027,-6.109c0.018,-0.494 0.027,-0.989 0.027,-1.487c0,-4.399 -0.709,-8.635 -2.021,-12.598Zm-37.23,10.19c1.444,0.494 2.215,2.068 1.72,3.512c-0.495,1.444 -2.069,2.215 -3.513,1.721c-1.444,-0.495 -2.215,-2.069 -1.72,-3.513c0.495,-1.444 2.069,-2.215 3.513,-1.72Zm-7.793,-37.107c2.25,-0.393 4.567,-0.598 6.931,-0.598c2.365,-0 4.682,0.205 6.931,0.598l0,-13.612c0,-0 -13.862,-0 -13.862,-0l-0,13.612Zm-48.888,-45.481c9.11,3.121 13.973,13.05 10.853,22.16c-3.121,9.11 -13.05,13.972 -22.16,10.852c-9.11,-3.12 -13.972,-13.049 -10.852,-22.159c3.12,-9.11 13.049,-13.973 22.159,-10.853l0,0Z"/><text x="0" y="432" fill="#000000" font-size="5px" font-weight="bold" font-family="'Helvetica Neue', Helvetica, Arial-Unicode, Arial, Sans-serif">Created by Agan24</text><text x="0" y="437" fill="#000000" font-size="5px" font-weight="bold" font-family="'Helvetica Neue', Helvetica, Arial-Unicode, Arial, Sans-serif">from the Noun Project</text></svg>