<svg xmlns="http://www.w3.org/2000/svg" version="1.1" viewBox="-5.0 -10.0 110.0 135.0">
 <path d="m82.016 83.492h-64.031c-3.4766-0.003907-6.2969-2.8242-6.3008-6.3047v-0.64844c0.003906-3.4805 2.8242-6.3008 6.3047-6.3047h64.031c3.4805 0.003906 6.3008 2.8242 6.3047 6.3047v0.64844c-0.003907 3.4844-2.8281 6.3047-6.3086 6.3047zm-64.031-11.258c-2.375 0.007813-4.2969 1.9336-4.3008 4.3047v0.64844c0.003906 2.375 1.9258 4.3008 4.3008 4.3047h64.031c2.375 0 4.3008-1.9258 4.3047-4.3047v-0.64844c-0.003906-2.375-1.9297-4.3008-4.3047-4.3047z"/>
 <path d="m83.785 91h-67.57c-2.5039-0.003906-4.5312-2.0312-4.5352-4.5352v-0.43359c0.003906-2.5039 2.0312-4.5352 4.5352-4.5391h67.57c2.5039 0.003906 4.5312 2.0352 4.5352 4.5391v0.43359c-0.003906 2.5039-2.0312 4.5312-4.5352 4.5352zm-67.57-7.5078c-1.3984 0.003906-2.5312 1.1406-2.5352 2.5391v0.43359c0.003906 1.3984 1.1367 2.5312 2.5352 2.5352h67.57c1.3984-0.003906 2.5312-1.1367 2.5352-2.5352v-0.43359c-0.003906-1.3984-1.1367-2.5352-2.5352-2.5391z"/>
 <path d="m22.758 91c-0.38281 0-0.73437-0.22266-0.89844-0.57031l-3.5703-7.5078c-0.11328-0.23828-0.12891-0.51172-0.039062-0.76172s0.27344-0.45703 0.51172-0.57031c0.5-0.23828 1.0977-0.023438 1.3359 0.47266l3.5703 7.5078h-0.003907c0.14844 0.30859 0.125 0.67188-0.054687 0.96094-0.18359 0.29297-0.50391 0.46875-0.84375 0.46875z"/>
 <path d="m31.051 91c-0.38281 0-0.73438-0.22266-0.89844-0.57031l-3.5703-7.5078c-0.23047-0.49609-0.015625-1.0859 0.48047-1.3203 0.49219-0.23828 1.0859-0.03125 1.3281 0.46094l3.5703 7.5078h-0.003907c0.14844 0.30859 0.125 0.67188-0.054687 0.96094-0.18359 0.29297-0.50391 0.46875-0.84375 0.46875z"/>
 <path d="m39.348 91c-0.38672 0-0.73828-0.22266-0.90234-0.57031l-3.5703-7.5078h0.003906c-0.23047-0.49609-0.019531-1.0859 0.47656-1.3203 0.49609-0.23828 1.0859-0.03125 1.3281 0.46094l3.5703 7.5078c0.14453 0.30859 0.125 0.67188-0.058594 0.96094-0.18359 0.29297-0.5 0.46875-0.84375 0.46875z"/>
 <path d="m47.641 91c-0.38672 0-0.73828-0.22266-0.90234-0.57031l-3.5703-7.5078h0.003906c-0.23047-0.49609-0.019531-1.0859 0.47656-1.3203 0.49609-0.23828 1.0859-0.03125 1.3281 0.46094l3.5703 7.5078c0.23047 0.5 0.019531 1.0938-0.48047 1.3281-0.13281 0.066406-0.27734 0.10156-0.42578 0.10156z"/>
 <path d="m55.934 91c-0.38672 0-0.73438-0.22266-0.90234-0.57031l-3.5703-7.5078c-0.23047-0.49609-0.019532-1.0859 0.47656-1.3203 0.49609-0.23828 1.0859-0.03125 1.3281 0.46094l3.5703 7.5078c0.23437 0.5 0.023437 1.0938-0.47656 1.3281-0.13281 0.066406-0.27734 0.10156-0.42578 0.10156z"/>
 <path d="m64.227 91c-0.38672 0-0.73828-0.22266-0.90234-0.57031l-3.5703-7.5078h0.003906c-0.23047-0.49609-0.019531-1.0859 0.47656-1.3203 0.49609-0.23828 1.0859-0.03125 1.3281 0.46094l3.5703 7.5078c0.14453 0.30859 0.125 0.67188-0.058593 0.96094-0.18359 0.29297-0.5 0.46875-0.84375 0.46875z"/>
 <path d="m72.52 91c-0.38672 0-0.73438-0.22266-0.90234-0.57031l-3.5703-7.5078h0.003906c-0.23047-0.49609-0.015625-1.0859 0.47656-1.3203 0.49609-0.23828 1.0859-0.03125 1.3281 0.46094l3.5703 7.5078c0.14453 0.30859 0.125 0.67188-0.058593 0.96094-0.18359 0.29297-0.5 0.46875-0.84375 0.46875z"/>
 <path d="m80.812 91c-0.38672 0-0.73438-0.22266-0.90234-0.57031l-3.5703-7.5078h0.003906c-0.11328-0.23828-0.12891-0.51172-0.039062-0.76172 0.089843-0.25 0.27344-0.45703 0.51172-0.57031 0.5-0.23828 1.0977-0.023438 1.332 0.47266l3.5703 7.5078c0.14844 0.30859 0.125 0.67188-0.058594 0.96094-0.17969 0.29297-0.5 0.46875-0.83984 0.46875z"/>
 <path d="m14.828 82.289c-0.55078 0-1-0.44922-1-1 0-0.40625 0.24609-0.76953 0.61719-0.92578 0.375-0.15234 0.80469-0.066406 1.0898 0.21875 0.28516 0.28516 0.37109 0.71484 0.21875 1.0898-0.15625 0.375-0.51953 0.61719-0.92578 0.61719z"/>
 <path d="m25.602 72.234c-0.30859 0.003906-0.60156-0.14062-0.78906-0.38281-0.19141-0.24219-0.25781-0.55859-0.18359-0.85547l7.1328-28.91c0.054687-0.26563 0.21484-0.49609 0.44531-0.64063 0.23047-0.14062 0.50781-0.1875 0.76953-0.12109 0.26172 0.0625 0.48828 0.23047 0.625 0.46484 0.13672 0.23438 0.17188 0.51563 0.097657 0.77344l-7.125 28.914c-0.10938 0.44531-0.51172 0.76172-0.97266 0.75781z"/>
 <path d="m17.285 72.328c-0.30469 0-0.59766-0.14062-0.78516-0.38281-0.19141-0.24219-0.25781-0.55859-0.18359-0.85547l8.8008-35.656h-0.003907c0.13281-0.53516 0.67578-0.86328 1.2109-0.73047 0.53906 0.12891 0.86328 0.67188 0.73438 1.207l-8.8008 35.656c-0.10937 0.44531-0.51172 0.76172-0.97266 0.76172z"/>
 <path d="m13.156 89.074c-0.55469 0-1-0.44531-1-1 0-0.40234 0.24219-0.76953 0.61719-0.92188 0.37109-0.15625 0.80078-0.070313 1.0898 0.21484 0.28516 0.28516 0.37109 0.71875 0.21484 1.0898-0.15234 0.375-0.51953 0.61719-0.92188 0.61719z"/>
 <path d="m21.582 88.531c-0.55078 0-1-0.44922-1-1 0-0.40625 0.24609-0.76953 0.61719-0.92578 0.375-0.15234 0.80469-0.066407 1.0898 0.21875 0.28516 0.28516 0.37109 0.71484 0.21875 1.0898-0.15625 0.375-0.51953 0.61719-0.92578 0.61719z"/>
 <path d="m39.156 48.625c-0.98438 0-1.9297-0.39062-2.625-1.0898l-14.145-14.145c-0.69531-0.69531-1.0859-1.6406-1.0859-2.625s0.39062-1.9258 1.0859-2.625l0.23438-0.23438c1.4492-1.4492 3.8008-1.4492 5.25 0l14.145 14.145c1.4492 1.4492 1.4492 3.8008 0 5.25l-0.23438 0.23438c-0.69531 0.69922-1.6406 1.0898-2.625 1.0898zm-13.91-19.801c-0.45312 0-0.89062 0.17969-1.2109 0.5l-0.23438 0.23047c-0.32031 0.32422-0.50391 0.75781-0.50391 1.2109 0 0.45703 0.18359 0.89062 0.50391 1.2109l14.145 14.145c0.32031 0.32031 0.75781 0.50391 1.2109 0.50391s0.89062-0.18359 1.2109-0.50391l0.23437-0.23438c0.66797-0.66797 0.66797-1.7539 0-2.4219l-14.141-14.145c-0.32422-0.32031-0.75781-0.5-1.2148-0.5z"/>
 <path d="m20.453 80.691c-1.5508 0-2.9453-0.93359-3.5391-2.3633-0.58984-1.4297-0.26562-3.0742 0.83203-4.1719 1.0938-1.0938 2.7383-1.4219 4.168-0.82812 1.4336 0.59375 2.3633 1.9883 2.3633 3.5352 0 2.1133-1.7148 3.8242-3.8242 3.8281zm0-5.6523c-0.73828 0-1.4062 0.44531-1.6914 1.125-0.28125 0.68359-0.125 1.4688 0.39844 1.9922 0.51953 0.52344 1.3086 0.67969 1.9883 0.39844 0.68359-0.28516 1.1289-0.94922 1.1289-1.6914 0-1.0078-0.81641-1.8242-1.8242-1.8242z"/>
 <path d="m79.547 80.691c-1.5469 0-2.9414-0.93359-3.5352-2.3633s-0.26562-3.0742 0.82812-4.1719c1.0938-1.0938 2.7422-1.4219 4.1719-0.82812 1.4297 0.59375 2.3633 1.9883 2.3633 3.5352-0.003906 2.1133-1.7148 3.8242-3.8281 3.8281zm0-5.6523c-0.73828 0-1.4062 0.44531-1.6875 1.125-0.28125 0.68359-0.12891 1.4688 0.39453 1.9922 0.52344 0.52344 1.3086 0.67969 1.9922 0.39844 0.68359-0.28516 1.1289-0.94922 1.1289-1.6914-0.003906-1.0078-0.82031-1.8242-1.8281-1.8242z"/>
 <path d="m49.734 43.219c-0.19531 0-0.38281-0.054688-0.54688-0.16406l-8.3047-5.4336c-0.93359-0.59766-1.5898-1.5469-1.8203-2.6328-0.22656-1.0859-0.011719-2.2148 0.60156-3.1406 0.61328-0.92578 1.5703-1.5664 2.6602-1.7773 1.0898-0.21094 2.2188 0.023438 3.1328 0.65234l4.3516 2.9258 1.0391-0.51953c0.49609-0.25 1.0938-0.050781 1.3438 0.44531 0.24609 0.49219 0.046875 1.0938-0.44922 1.3398l-1.5586 0.78516c-0.32422 0.16016-0.70703 0.13672-1.0078-0.0625l-4.8359-3.25h0.003906c-0.47266-0.32812-1.0586-0.45312-1.625-0.34375-0.56641 0.10547-1.0625 0.4375-1.3828 0.91797-0.31641 0.48047-0.42969 1.0664-0.30859 1.6289s0.46484 1.0547 0.94922 1.3633l7.9219 5.1797 2.6797-0.78125v-0.003906c0.53125-0.15625 1.0859 0.14844 1.2422 0.67969s-0.14844 1.0859-0.67969 1.2422l-3.1211 0.91016c-0.09375 0.027343-0.1875 0.039062-0.28516 0.039062z"/>
 <path d="m62 46.758c-1.2383 0-2.4062-0.57812-3.1562-1.5625-0.75-0.98437-0.99609-2.2617-0.66406-3.457l1.8398-6.6602-2.2734-1.1875c-0.097656-0.050781-0.1875-0.12109-0.26172-0.19922-1.625-1.7266-2.3164-3.2617-2.1094-4.6992 0.16797-1.1602 0.91016-2.1367 2.207-2.8984v-0.003906c1.5352-0.89453 3.3398-1.1992 5.082-0.85547 1.7422 0.33984 3.3047 1.2852 4.418 2.6641 1.7461 2.1602 2.2773 5.0547 1.418 7.6914l-2.7266 8.4258c-0.52734 1.6367-2.0508 2.7461-3.7734 2.7422zm-3.1758-14.559 2.8398 1.4805v0.003906c0.41797 0.21875 0.62891 0.69922 0.5 1.1523l-2.0547 7.4414c-0.28516 1.0312 0.30469 2.1016 1.332 2.4062 1.0234 0.30469 2.1055-0.26562 2.4297-1.2852l2.7305-8.4219c0.64844-1.9961 0.24219-4.1836-1.0742-5.8164-1.6836-2.0898-4.6641-2.6641-6.9336-1.3398-0.74609 0.4375-1.1602 0.92578-1.2383 1.4531-0.10938 0.75 0.39844 1.7578 1.4688 2.9258zm-0.73828-5.2383z"/>
 <path d="m54.809 23.391c-2.9141 0.003906-5.543-1.75-6.6602-4.4414-1.1172-2.6914-0.5-5.7891 1.5625-7.8516 2.0586-2.0586 5.1562-2.6758 7.8477-1.5586 2.6914 1.1172 4.4453 3.7461 4.4414 6.6602-0.003906 3.9688-3.2227 7.1875-7.1914 7.1914zm0-12.391c-2.1016 0-3.9961 1.2617-4.8008 3.2031-0.80469 1.9414-0.36328 4.1758 1.1211 5.6641 1.4844 1.4844 3.7188 1.9297 5.6602 1.1289 1.9414-0.80078 3.207-2.6953 3.2109-4.7969 0-2.8672-2.3242-5.1953-5.1914-5.1992z"/>
 <path d="m50.039 72.234h-6.6797c-1.7734 0-3.2109-1.4375-3.2109-3.2109 0-1.7734 1.4375-3.2109 3.2109-3.2109h0.87109c1.5859-7.6641 4.0703-15.109 7.4102-22.184 0.21484-0.46094 0.3125-0.96484 0.27344-1.4727l-0.015624-0.16797c-0.027344-0.42188-0.027344-0.84766 0-1.2695 0.10156-1.7305-0.19922-3.4609-0.87891-5.0547-0.48047-1.1133-0.72266-2.3164-0.71875-3.5312v-1.5039c0-2.1836 1.4648-4.0938 3.5742-4.6523l3.9414-1.0469c0.53125-0.14063 3.1758-0.14063 4.1406 0.25391l0.003907 0.003906c0.51172 0.21094 0.75391 0.79297 0.54687 1.3047-0.21094 0.51172-0.79687 0.75781-1.3086 0.54687-0.44141-0.17969-2.4375-0.23047-2.8984-0.16406l-3.9141 1.0352c-1.2305 0.32812-2.0859 1.4414-2.0859 2.7188v1.5078-0.003907c-0.003906 0.94531 0.1875 1.8789 0.5625 2.7461 0.80469 1.8789 1.1562 3.9219 1.0352 5.9609-0.019532 0.33594-0.019532 0.67188 0 1.0078l0.011718 0.16406c0.0625 0.84766-0.097656 1.6992-0.46094 2.4688-3.3867 7.1758-5.875 14.742-7.418 22.523-0.09375 0.46875-0.50391 0.80859-0.98047 0.80859h-1.6914c-0.66797 0-1.2109 0.54297-1.2109 1.2109 0 0.66797 0.54297 1.2109 1.2109 1.2109h6.6797c0.070313 0 0.125-0.054687 0.125-0.125v-0.18359c0.011719-1.3789 0.47266-2.7148 1.3125-3.8086 0.78516-1.0195 1.7695-2.8906 2.0156-6 0.13281-1.5859 0.78906-3.082 1.8594-4.2578l2.4922-2.7305c0.24219-0.26562 0.60547-0.38281 0.95312-0.30469 0.35156 0.078125 0.63281 0.33594 0.74219 0.67578l1.7305 5.5508h-0.003906c0.35547 1.1484 1.2617 2.0391 2.4141 2.375l10.676 1.7383h0.003906c0.48438 0.078126 0.83984 0.49609 0.83984 0.98438v0.39062c0.023437 1.1562 0.96484 2.0781 2.1211 2.0781s2.0977-0.92188 2.1211-2.0781v-3.9023c0-0.35547-0.16797-0.6875-0.45312-0.90234-1.4688-1.0898-5.0117-2.3164-9.0273-3.1289-2.1016-0.44141-3.7578-2.0508-4.2617-4.1367l-1.9688-8.0586v-0.003906c-0.042969-0.17578-0.035157-0.36328 0.019531-0.53906l2.9648-9.2812c0.066406-0.26953 0.24219-0.49609 0.48438-0.63281 0.24219-0.13672 0.52734-0.16406 0.79297-0.078125 0.26562 0.082031 0.48047 0.27344 0.59766 0.52344 0.12109 0.25 0.12891 0.53906 0.027344 0.79687l-2.8789 9.0117 1.8984 7.7852c0.31641 1.3359 1.375 2.3672 2.7188 2.6523 4.3477 0.87891 8.1133 2.2148 9.8242 3.4844 0.79297 0.58984 1.2578 1.5195 1.2617 2.5078v3.9062c0 2.1875-1.707 3.9961-3.8906 4.1172-2.1836 0.125-4.0859-1.4805-4.3281-3.6523l-9.9219-1.6172c-0.035156-0.003906-0.074219-0.011719-0.10938-0.023437-1.8281-0.50391-3.2773-1.9062-3.8359-3.7188l-1.2109-3.8867-1.3164 1.4414c-0.77344 0.84766-1.2461 1.9297-1.3438 3.0703-0.28516 3.6016-1.4766 5.8242-2.4258 7.0625-0.57422 0.74219-0.89062 1.6523-0.89844 2.5898v0.18359c0 1.1719-0.94922 2.1211-2.1211 2.125zm8.2891-45.367z"/>
<text x="0.0" y="117.5" font-size="5.0" font-weight="bold" font-family="Arbeit Regular, Helvetica, Arial-Unicode, Arial, Sans-serif" fill="#000000">Created by Muhammad Asfandyar bhatti</text><text x="0.0" y="122.5" font-size="5.0" font-weight="bold" font-family="Arbeit Regular, Helvetica, Arial-Unicode, Arial, Sans-serif" fill="#000000">from Noun Project</text></svg>