<svg xmlns="http://www.w3.org/2000/svg" version="1.1" viewBox="-5.0 -10.0 110.0 135.0">
 <path d="m90.625 85.324v3.5312c0 0.97656-0.78906 1.7656-1.7656 1.7656l-77.719 0.003906c-0.97656 0-1.7656-0.78906-1.7656-1.7656v-3.5312c0-2.9219 2.375-5.3008 5.3008-5.3008h21.195v-7.0664h7.0664v7.0664h14.129v-7.0664h7.0664v7.0664h21.195c2.9219 0 5.3008 2.375 5.3008 5.3008zm-68.887-19.426v1.7656c0 0.97656 0.78906 1.7656 1.7656 1.7656h52.988c0.97656 0 1.7656-0.78906 1.7656-1.7656v-1.7656c0-3.8945-3.168-7.0664-7.0664-7.0664h-42.391c-3.8945 0-7.0664 3.168-7.0664 7.0664zm-5.2969-14.133h5.3008c1.9492 0 3.5312-1.582 3.5312-3.5312v-12.363c0-1.9492-1.582-3.5312-3.5312-3.5312h-5.3008c-1.9492 0-3.5312 1.582-3.5312 3.5312v12.363c0 1.9492 1.582 3.5312 3.5312 3.5312zm61.82-19.43c-1.9492 0-3.5312 1.582-3.5312 3.5312v12.363c0 1.9492 1.582 3.5312 3.5312 3.5312h5.3008c1.9492 0 3.5312-1.582 3.5312-3.5312v-12.363c0-1.9492-1.582-3.5312-3.5312-3.5312zm-35.328-19.43c0-1.9492-1.582-3.5312-3.5312-3.5312-1.9492 0-3.5312 1.582-3.5312 3.5312v1.7656h7.0664v-1.7656zm21.195 0c0-1.9492-1.582-3.5312-3.5312-3.5312-1.9492 0-3.5312 1.582-3.5312 3.5312v1.7656h7.0664v-1.7656zm-28.258 14.133v28.262h7.0664v-28.262zm21.195 0v28.262h7.0664v-28.262zm-35.328 0c0-1.9492 1.582-3.5312 3.5312-3.5312h49.457c1.9492 0 3.5312 1.582 3.5312 3.5312v1.7656h5.3008v-1.7656c0-4.8789-3.9531-8.832-8.832-8.832h-49.457c-4.8789 0-8.832 3.9531-8.832 8.832v1.7656h5.3008z"/>
<text x="0.0" y="117.5" font-size="5.0" font-weight="bold" font-family="Arbeit Regular, Helvetica, Arial-Unicode, Arial, Sans-serif" fill="#000000">Created by Sandy Walsh</text><text x="0.0" y="122.5" font-size="5.0" font-weight="bold" font-family="Arbeit Regular, Helvetica, Arial-Unicode, Arial, Sans-serif" fill="#000000">from Noun Project</text></svg>